<svg xmlns="http://www.w3.org/2000/svg" width="206" height="202" fill="none" viewBox="0 0 206 202">
  <g clip-path="url(#a)">
    <path fill="#fff" d="M192.17 46.32c-4.83-7.39-14.84-9.55-22.33-4.81l-46.99 29.74a100.64 100.64 0 0 0-14.26-15.66L51.15 4.49C43.9-1.96 32.67-1.4 26.12 5.74 8.02 25.45-1.21 50.92.13 77.46c1.34 26.6 13.13 51.08 33.19 68.93l57.43 51.09c3.38 3.01 7.63 4.49 11.87 4.49h.07c.53 0 1.05-.03 1.58-.08 4.27-.39 8.41-2.29 11.51-5.66.46-.5.92-1.01 1.37-1.52l4.16-2.64 30.51-19.17c1.11-.7 2.18-1.43 3.24-2.18l11.25-7.12c19.44-12.3 32.81-31.34 37.65-53.61 4.8-22.07.61-44.68-11.79-63.66v-.01Zm-18.83 83.3c-3.04 13.99-11.08 26.09-22.77 34.46l-33.38 21.12-7.48 4.7-.38.44c-.37.42-.75.84-1.13 1.25a7.455 7.455 0 0 1-4.4 2.3c-.49.06-.98.08-1.47.07a7.412 7.412 0 0 1-4.57-1.85L54.4 153.79c-13.94-12.31-22.12-29.2-23.04-47.54-.92-18.28 5.49-35.82 18.04-49.4 1.46-1.58 3.47-2.38 5.49-2.38 1.77 0 3.54.61 4.95 1.86l43.36 38.32c4.15 3.67 7.84 7.8 10.96 12.27l2.18 3.13 40.36-25.37c2.88-1.81 6.72-.99 8.57 1.82 8.46 12.85 11.32 28.16 8.08 43.11l-.01.01Zm22.8-21.34c-3.05 14.02-9.84 26.62-19.62 36.75 2.02-4.34 3.59-8.93 4.63-13.71 3.71-17.06.44-34.54-9.21-49.2-4.23-6.42-12.98-8.3-19.51-4.2l-33.98 21.36a77.39 77.39 0 0 0-9.96-10.61L65.13 50.35c-6.25-5.53-15.95-5.04-21.61 1.08-14.03 15.17-21.19 34.79-20.16 55.24.39 7.8 1.97 15.36 4.61 22.49C16.05 114.34 9.1 96.31 8.13 77.05c-1.23-24.38 7.25-47.79 23.89-65.9 1.93-2.1 4.59-3.17 7.27-3.17 2.34 0 4.69.82 6.56 2.48l57.43 51.09a92.262 92.262 0 0 1 15.19 17.34l2.17 3.22 53.5-33.85c3.81-2.41 8.9-1.32 11.35 2.43 11.22 17.17 15.01 37.63 10.67 57.59h-.02Z"/>
  </g>
  <defs>
    <clipPath id="a">
      <path fill="#fff" d="M0 0h205.9v201.96H0z"/>
    </clipPath>
  </defs>
</svg>
